<svg xmlns="http://www.w3.org/2000/svg" viewBox="0 0 46 45" width="55" height="55" class="h-6 w-6 rounded-full md:h-8 md:w-8 fill-white dark:!fill-white !fill-trdark"><path d="M22.625 0C10.198 0 .125 10.073.125 22.5S10.198 45 22.625 45s22.5-10.073 22.5-22.5S35.052 0 22.625 0m9.152 18.431q.014.29.012.572c0 5.86-4.455 12.612-12.607 12.612a12.5 12.5 0 0 1-6.792-1.992c.344.042.698.058 1.057.058a8.88 8.88 0 0 0 5.503-1.896 4.44 4.44 0 0 1-4.14-3.075 4.46 4.46 0 0 0 2-.077 4.434 4.434 0 0 1-3.555-4.345v-.054c.597.33 1.282.532 2.008.555a4.43 4.43 0 0 1-1.37-5.92 12.6 12.6 0 0 0 9.133 4.633 4.432 4.432 0 0 1 7.551-4.043 8.9 8.9 0 0 0 2.813-1.075 4.45 4.45 0 0 1-1.948 2.453 8.9 8.9 0 0 0 2.545-.7 9 9 0 0 1-2.21 2.294" fill="#FFF"/></svg>